<svg width="100" height="44" viewBox="0 0 100 44" fill="none" xmlns="http://www.w3.org/2000/svg">
<path d="M29.2754 37.0979C36.793 37.0979 42.8872 30.9631 42.8872 23.3954C42.8872 15.8277 36.793 9.69287 29.2754 9.69287C21.7578 9.69287 15.6636 15.8277 15.6636 23.3954C15.6636 30.9631 21.7578 37.0979 29.2754 37.0979Z" fill="#FFC533"/>
<path d="M16.7319 27.995L17.0725 27.8408C17.0725 27.8408 18.648 30.6469 19.254 30.9519L18.7516 31.5068L17.7111 29.9049L16.7319 27.995Z" fill="#FFC533"/>
<path d="M30.5934 34.2554L30.5024 36.4972L31.8205 36.2227L32.0477 34.2096L30.5934 34.2554Z" fill="#FFC533"/>
<path d="M29.6162 12.7734C29.6162 12.7734 30.5252 16.5555 34.9488 15.3965L34.8882 28.9389C34.8882 28.9389 34.0398 29.2439 33.4945 29.3049V30.5859C33.4945 30.5859 32.8885 34.612 32.5249 35.4661C32.5249 35.4661 31.9492 35.9846 31.8886 36.1676C31.828 36.3506 31.2523 38.8516 31.2523 38.8516V16.3116L13.376 37.0521L14.3455 34.6731C14.3455 34.6731 13.9214 34.2461 14.1031 33.8801C14.2849 33.5141 14.8303 32.05 15.1333 31.623C15.4363 31.196 17.3754 28.8169 17.3754 28.8169L17.1936 27.4749L29.6162 12.7735L29.6162 12.7734Z" fill="white"/>
<path d="M29.1488 14.5217L17.9985 27.5149L18.3274 27.8009L29.4776 14.8077L29.1488 14.5217Z" fill="#FFC533"/>
<path d="M34.2573 16.3115H33.8228V28.3899H34.2573V16.3115Z" fill="#FFC533"/>
<path d="M33.2519 14.8475C34.8249 14.8475 36.1 13.5638 36.1 11.9804C36.1 10.3969 34.8249 9.11328 33.2519 9.11328C31.679 9.11328 30.4038 10.3969 30.4038 11.9804C30.4038 13.5638 31.679 14.8475 33.2519 14.8475Z" fill="#FFC533"/>
<path d="M33.252 15.1209C31.5318 15.1209 30.1323 13.7121 30.1323 11.9805C30.1323 10.2488 31.5318 8.83997 33.252 8.83997C34.9722 8.83997 36.3718 10.2488 36.3718 11.9805C36.3718 13.7121 34.9722 15.1209 33.252 15.1209ZM33.252 9.38678C31.8313 9.38678 30.6755 10.5503 30.6755 11.9805C30.6755 13.4107 31.8313 14.5741 33.252 14.5741C34.6728 14.5741 35.8286 13.4106 35.8286 11.9805C35.8286 10.5503 34.6728 9.38678 33.252 9.38678Z" fill="white"/>
<path d="M33.4631 8.44226H32.9199V14.8475H33.4631V8.44226Z" fill="white"/>
<path d="M33.9794 5.14819H32.3433V8.13727H33.9794V5.14819Z" fill="white"/>
<path d="M15.3149 31.5009C15.9508 31.5009 16.4663 30.982 16.4663 30.3419C16.4663 29.7018 15.9508 29.1829 15.3149 29.1829C14.6791 29.1829 14.1636 29.7018 14.1636 30.3419C14.1636 30.982 14.6791 31.5009 15.3149 31.5009Z" fill="#FFC533"/>
<path d="M15.3149 31.7197C14.5603 31.7197 13.9463 31.1016 13.9463 30.3418C13.9463 29.5821 14.5603 28.9641 15.3149 28.9641C16.0696 28.9641 16.6835 29.5822 16.6835 30.3418C16.6835 31.1015 16.0696 31.7197 15.3149 31.7197ZM15.3149 29.4016C14.7998 29.4016 14.3809 29.8234 14.3809 30.3418C14.3809 30.8603 14.7998 31.2822 15.3149 31.2822C15.83 31.2822 16.2489 30.8604 16.2489 30.3418C16.2489 29.8233 15.83 29.4016 15.3149 29.4016Z" fill="white"/>
<path d="M34.0703 32.965C34.6894 32.965 35.1914 32.4597 35.1914 31.8364C35.1914 31.2131 34.6894 30.7079 34.0703 30.7079C33.4511 30.7079 32.9492 31.2131 32.9492 31.8364C32.9492 32.4597 33.4511 32.965 34.0703 32.965Z" fill="#FFC533"/>
<path d="M34.0703 33.1837C33.3323 33.1837 32.7319 32.5793 32.7319 31.8364C32.7319 31.0935 33.3323 30.4891 34.0703 30.4891C34.8083 30.4891 35.4086 31.0935 35.4086 31.8364C35.4086 32.5793 34.8082 33.1837 34.0703 33.1837ZM34.0703 30.9266C33.572 30.9266 33.1665 31.3348 33.1665 31.8364C33.1665 32.3381 33.572 32.7462 34.0703 32.7462C34.5687 32.7462 34.974 32.3381 34.974 31.8364C34.974 31.3348 34.5686 30.9266 34.0703 30.9266Z" fill="white"/>
<path d="M22.3444 27.8713C22.3444 27.8713 24.8895 30.6927 30.4645 31.3789V33.3615C30.4645 33.3615 25.5258 33.4377 20.981 29.3964L22.3444 27.8713Z" fill="white"/>
<path d="M46.0209 16.4663H49.6409V18.3835H43.9678V8.86523H46.0209V16.4663Z" fill="white"/>
<path d="M56.7055 11.0271H58.1777V18.3699H56.6244L56.4623 17.7172C55.7958 18.2974 55.0079 18.5874 54.0985 18.5874C52.9997 18.5874 52.088 18.2181 51.3632 17.4792C50.6383 16.7405 50.2759 15.8135 50.2759 14.6985C50.2759 13.5926 50.6383 12.6725 51.3632 11.9382C52.088 11.204 52.9998 10.8368 54.0985 10.8368C55.0258 10.8368 55.8228 11.1359 56.4893 11.7342L56.7055 11.0271V11.0271ZM52.8355 16.1398C53.2091 16.5206 53.6818 16.7109 54.2538 16.7109C54.8258 16.7109 55.3006 16.5206 55.6789 16.1398C56.0571 15.7591 56.2461 15.2787 56.2461 14.6985C56.2461 14.1184 56.0571 13.6379 55.6789 13.2571C55.3006 12.8765 54.8279 12.686 54.2606 12.686C53.8824 12.686 53.5423 12.7745 53.2408 12.9512C52.9389 13.128 52.7026 13.3683 52.5317 13.6718C52.3604 13.9757 52.275 14.3177 52.275 14.6985C52.275 15.2787 52.4617 15.7591 52.8355 16.1398Z" fill="white"/>
<path d="M64.0396 10.8369C65.1472 10.8369 66.0634 11.204 66.7883 11.9383C67.5131 12.6725 67.8757 13.5971 67.8757 14.7121C67.8757 15.8271 67.5131 16.7517 66.7883 17.486C66.0634 18.2202 65.1472 18.5874 64.0396 18.5874C63.166 18.5874 62.4051 18.3154 61.7568 17.7716L61.5272 18.3835H60.0684V8.38928H62.0405V11.4351C62.6257 11.0363 63.2921 10.8369 64.0396 10.8369ZM62.4592 16.1399C62.8375 16.5206 63.3122 16.7109 63.8842 16.7109C64.4562 16.7109 64.9287 16.5206 65.3026 16.1399C65.6761 15.7591 65.8631 15.2832 65.8631 14.7121C65.8631 14.3314 65.7797 13.9871 65.6132 13.6787C65.4465 13.3707 65.2101 13.1304 64.9041 12.958C64.5978 12.786 64.2579 12.6997 63.8842 12.6997C63.5105 12.6997 63.1705 12.7859 62.8644 12.958C62.5582 13.1304 62.3195 13.3707 62.1486 13.6787C61.9774 13.9871 61.8919 14.3314 61.8919 14.7121C61.8919 15.2832 62.081 15.7591 62.4592 16.1399Z" fill="white"/>
<path d="M71.4552 16.5614H74.5214V18.3834H68.4971V18.1659L71.6038 12.8357H68.7942V11.0408H74.5214V11.3128L71.4552 16.5614Z" fill="white"/>
<path d="M75.9126 10.0618V8.21252H77.8847V10.0618H75.9126ZM75.9126 18.3835V11.0408H77.8847V18.3835H75.9126Z" fill="white"/>
<path d="M83.9362 10.864C84.7646 10.864 85.4197 11.1428 85.9015 11.7003C86.3832 12.2578 86.6242 13.0035 86.6242 13.9371V18.3835H84.6521V14.2498C84.6521 13.1531 84.2287 12.6045 83.3824 12.6045C83.0491 12.6045 82.7587 12.6816 82.5111 12.8357C82.2634 12.9899 82.0742 13.212 81.9438 13.502C81.8132 13.7921 81.748 14.1321 81.748 14.5218V18.3835H79.7759V11.0408H81.1267L81.5184 11.9518C81.6535 11.7798 81.8088 11.6278 81.9844 11.4963C82.16 11.365 82.3511 11.2516 82.5585 11.1564C82.7655 11.0612 82.9839 10.9887 83.2136 10.9388C83.4432 10.8891 83.684 10.8641 83.9362 10.8641L83.9362 10.864Z" fill="white"/>
<path d="M50.8565 20.1714C52.47 20.1714 53.8173 20.6965 54.8984 21.746C55.9791 22.7958 56.5196 24.1136 56.5196 25.6998C56.5196 27.286 55.9791 28.6042 54.8984 29.6537C53.8173 30.7036 52.47 31.2283 50.8565 31.2283H48.1848V36.2625H44.7139V20.1714H50.8564H50.8565ZM50.7195 28.01C51.4046 28.01 51.9562 27.7957 52.375 27.3664C52.7935 26.9375 53.003 26.3859 53.003 25.7113C53.003 25.0367 52.7935 24.4815 52.375 24.0448C51.9562 23.6079 51.4046 23.3896 50.7195 23.3896H48.1848V28.01H50.7195Z" fill="white"/>
<path d="M64.9915 23.7804H66.0876V26.9526H64.649C63.705 26.9526 63.0312 27.1749 62.6281 27.6192C62.2245 28.0639 62.0229 28.7916 62.0229 29.8031V36.2625H58.689V23.8493H60.8355L61.4292 25.3665C62.2663 24.3091 63.4537 23.7804 64.9916 23.7804H64.9915Z" fill="white"/>
<path d="M73.5776 36.6072C72.3137 36.6072 71.1721 36.3236 70.1523 35.7568C69.1322 35.19 68.3369 34.4045 67.766 33.4005C67.1952 32.397 66.9097 31.2821 66.9097 30.0559C66.9097 28.171 67.5413 26.6078 68.8049 25.3665C70.0684 24.1252 71.6594 23.5045 73.5775 23.5045C75.4803 23.5045 77.0635 24.1251 78.3273 25.3665C79.5907 26.6078 80.2226 28.1709 80.2226 30.0559C80.2226 31.9258 79.5867 33.485 78.3158 34.7338C77.0446 35.9831 75.465 36.6072 73.5775 36.6072H73.5776ZM73.5776 33.4581C74.5367 33.4581 75.3206 33.1401 75.9296 32.504C76.5383 31.8683 76.8429 31.0523 76.8429 30.0559C76.8429 29.0595 76.5382 28.2439 75.9296 27.6078C75.3206 26.972 74.5327 26.6538 73.5662 26.6538C72.5996 26.6538 71.8114 26.972 71.2027 27.6078C70.5936 28.2439 70.2893 29.0599 70.2893 30.0559C70.2893 30.5465 70.3692 31.0063 70.5291 31.4351C70.6889 31.8644 70.9134 32.2246 71.2027 32.5155C71.4917 32.8068 71.8381 33.0367 72.2417 33.2051C72.6448 33.374 73.0901 33.458 73.5775 33.458L73.5776 33.4581Z" fill="white"/>
</svg>
